Coordinates
version=1
nRows=8
nColumns=63
inDegrees=yes

Units are S.I. units (second, meters, Newtons, ...)
If the header above contains a line with 'inDegrees', this indicates whether rotational values are in degrees (yes) or radians (no).

endheader
time	pelvis_tilt	pelvis_list	pelvis_rotation	pelvis_tx	pelvis_ty	pelvis_tz	hip_flexion_r	hip_adduction_r	hip_rotation_r	knee_angle_r	knee_angle_r_beta	ankle_angle_r	subtalar_angle_r	mtp_angle_r	hip_flexion_l	hip_adduction_l	hip_rotation_l	knee_angle_l	knee_angle_l_beta	ankle_angle_l	subtalar_angle_l	mtp_angle_l	L5_S1_Flex_Ext	L5_S1_Lat_Bending	L5_S1_axial_rotation	L4_L5_Flex_Ext	L4_L5_Lat_Bending	L4_L5_axial_rotation	L3_L4_Flex_Ext	L3_L4_Lat_Bending	L3_L4_axial_rotation	L2_L3_Flex_Ext	L2_L3_Lat_Bending	L2_L3_axial_rotation	L1_L2_Flex_Ext	L1_L2_Lat_Bending	L1_L2_axial_rotation	L1_T12_Flex_Ext	L1_T12_Lat_Bending	L1_T12_axial_rotation	Abs_r3	Abs_r2	Abs_r1	Abs_t1	Abs_t2	neck_flexion	neck_bending	neck_rotation	arm_flex_r	arm_add_r	arm_rot_r	elbow_flex_r	pro_sup_r	wrist_flex_r	wrist_dev_r	arm_flex_l	arm_add_l	arm_rot_l	elbow_flex_l	pro_sup_l	wrist_flex_l	wrist_dev_l
      2.48333333	     -2.60126879	     -5.11532825	     81.66303369	      0.10478191	      0.96283524	      0.33556609	      1.34849175	     -0.43125165	    -15.40799770	      0.25586815	      0.00446574	     10.22645004	     17.52110741	      0.00000000	      4.61847162	      1.89979827	     -0.36067302	      4.00190020	      0.06984633	      2.94347125	    -14.69428369	      0.00000000	     -0.17571170	     -0.04129350	      1.77887477	     -0.32631419	     -0.05492035	      1.89005445	     -0.28867674	     -0.10040102	      1.89005445	     -0.20082090	     -0.10040102	      1.55651543	     -0.16316588	     -0.08420571	      1.44533575	     -0.10040166	     -0.06396363	      1.33415608	     -1.25509107	     -0.46712033	      9.89356782	      0.00000000	      0.00000000	     24.35781387	     -9.44663748	      6.06683128	     11.71638336	     -7.82761229	    154.92346763	      0.74086636	      2.31912083	     -7.68127727	    -12.29829452	     16.52931117	     -8.87839132	    188.66661622	      1.76417723	      6.00606945	    -23.88250698	     -2.79765555
      2.50000000	     -2.68356088	     -4.83954391	     81.12270193	      0.10532490	      0.96284374	      0.33493475	      1.04839426	     -0.58598044	    -14.89465829	      0.24507084	      0.00427729	     10.48519919	     17.57812234	      0.00000000	      4.08402169	      2.03334594	     -0.68853940	      3.60103678	      0.06284995	      3.22365074	    -14.82553940	      0.00000000	     -0.19544534	     -0.05505212	      1.92402265	     -0.36296154	     -0.07321933	      2.04427406	     -0.32109715	     -0.13385374	      2.04427406	     -0.22337448	     -0.13385374	      1.68351982	     -0.18149054	     -0.11226229	      1.56326840	     -0.11167747	     -0.08527574	      1.44301699	     -1.39604653	     -0.62276064	     10.70083677	      0.00000000	      0.00000000	     24.51211476	     -9.48466297	      5.48190760	     11.59743556	     -7.87165295	    154.74937258	      0.71759502	      2.20874117	     -6.94557115	    -12.16848182	     16.64839014	     -8.75300798	    187.75776957	      1.88502849	      4.93034850	    -24.60161985	     -4.60036014
      2.51666667	     -2.75886125	     -4.61312183	     80.71176781	      0.10563912	      0.96280314	      0.33422558	      0.78209276	     -0.72453279	    -14.56382538	      0.23683569	      0.00413356	     10.72802242	     17.44374090	      0.00000000	      3.69632915	      2.15202266	     -1.09076358	      3.41614038	      0.05962290	      3.61093750	    -14.76774378	      0.00000000	     -0.20699261	     -0.06536756	      2.05541818	     -0.38440598	     -0.08693885	      2.18388182	     -0.34006816	     -0.15893469	      2.18388182	     -0.23657185	     -0.15893469	      1.79849091	     -0.19221334	     -0.13329753	      1.67002727	     -0.11827558	     -0.10125435	      1.54156364	     -1.47852751	     -0.73945091	     11.43161931	      0.00000000	      0.00000000	     24.52550887	     -9.43377488	      5.18496467	     11.31150621	     -7.95689112	    153.42841116	      0.75360039	      2.25269953	     -6.40471060	    -12.24738955	     16.84500723	     -8.56302730	    185.09175137	      2.22125111	      4.86000852	    -24.05978195	     -6.72134491
      2.53333333	     -2.82403721	     -4.34519559	     80.19244263	      0.10596267	      0.96289588	      0.33346484	      0.47826002	     -0.87745482	    -14.23738594	      0.23146569	      0.00403984	     10.87050282	     17.42501906	      0.00000000	      3.21023350	      2.29155329	     -1.36206126	      3.16620886	      0.05526077	      3.53458579	    -15.27528072	      0.00000000	     -0.22749218	     -0.07240941	      2.21928745	     -0.42247573	     -0.09630452	      2.35799292	     -0.37374691	     -0.17605625	      2.35799292	     -0.26000082	     -0.17605625	      1.94187652	     -0.21124924	     -0.14765728	      1.80317106	     -0.12998903	     -0.11216218	      1.66446559	     -1.62495392	     -0.81910976	     12.34301103	      0.00000000	      0.00000000	     24.36290160	     -9.55828133	      4.59065449	     10.94802732	     -8.12000359	    153.26269668	      0.75810409	      2.16968594	     -6.68321245	    -12.38438431	     17.13340772	     -8.24139689	    184.01808493	      2.61709285	      4.37864398	    -22.91717413	     -8.00116818
      2.55000000	     -2.87548833	     -4.09800891	     79.50151156	      0.10636665	      0.96304614	      0.33254263	      0.20839701	     -1.01862941	    -13.79775119	      0.22970949	      0.00400919	     10.91634231	     17.39608368	      0.00000000	      2.69227894	      2.42590830	     -2.06173244	      2.89261430	      0.05048564	      3.37154764	    -15.53741983	      0.00000000	     -0.24611542	     -0.07255483	      2.40465251	     -0.45706095	     -0.09649792	      2.55494329	     -0.40434302	     -0.17640981	      2.55494329	     -0.28128531	     -0.17640981	      2.10407094	     -0.22854278	     -0.14795381	      1.95378016	     -0.14063035	     -0.11238743	      1.80348938	     -1.75797783	     -0.82075475	     13.37395585	      0.00000000	      0.00000000	     24.00046346	     -9.46838843	      4.26635915	     10.52566098	     -8.34500138	    152.79232820	      0.79294582	      2.22410169	     -7.17850574	    -12.53398230	     17.48911735	     -7.82439912	    182.33102111	      3.43840808	      3.83356372	    -21.51787712	     -9.16785649
      2.56666667	     -2.80390406	     -3.86864005	     79.08142712	      0.10628216	      0.96329567	      0.33141670	     -0.09829151	     -1.03549399	    -13.57151221	      0.22771643	      0.00397440	     10.96951079	     17.33519737	      0.00000000	      2.21411463	      2.45647655	     -2.24291326	      2.72445468	      0.04755070	      2.98812468	    -16.16674967	      0.00000000	     -0.26645034	     -0.05260587	      2.49594167	     -0.49482493	     -0.06996580	      2.65193803	     -0.43775126	     -0.12790590	      2.65193803	     -0.30452609	     -0.12790590	      2.18394897	     -0.24742579	     -0.10727388	      2.02795261	     -0.15224972	     -0.08148649	      1.87195626	     -1.90322814	     -0.59508808	     13.88167881	      0.00000000	      0.00000000	     23.56943009	     -9.20469048	      4.30847925	     10.23493111	     -8.59422537	    153.33743155	      0.81505876	      2.28874634	     -7.84655030	    -12.24267346	     17.89287422	     -7.52893863	    177.27461632	      4.93265144	      3.99471070	    -19.57838146	    -11.44431801
      2.58333333	     -2.77619751	     -3.69796086	     78.56276399	      0.10640421	      0.96347464	      0.33024156	     -0.30954088	     -1.07574096	    -13.26343953	      0.22726206	      0.00396647	     10.96504574	     17.33729647	      0.00000000	      1.77436667	      2.52357257	     -2.85041472	      2.52244126	      0.04402491	      2.71692796	    -16.31817849	      0.00000000	     -0.28031271	     -0.03604346	      2.59489959	     -0.52056873	     -0.04793780	      2.75708081	     -0.46052575	     -0.08763606	      2.75708081	     -0.32036940	     -0.08763606	      2.27053714	     -0.26029838	     -0.07349981	      2.10835592	     -0.16017068	     -0.05583131	      1.94617469	     -2.00224566	     -0.40773078	     14.43205305	      0.00000000	      0.00000000	     23.13893661	     -8.95186735	      4.41487505	      9.95880251	     -8.82659093	    153.96132282	      0.82754361	      2.45761848	     -8.45270124	    -11.89043102	     18.40180387	     -7.31390018	    172.72589151	      6.87210935	      4.16189779	    -18.41773615	    -13.26495641
      2.60000000	     -2.73241072	     -3.58387881	     78.06393365	      0.10660390	      0.96362611	      0.32912639	     -0.44392760	     -1.07832960	    -12.82347412	      0.22890021	      0.00399506	     10.97389231	     17.40145519	      0.00000000	      1.41018987	      2.55907873	     -3.33416588	      2.32366303	      0.04055557	      2.32037605	    -16.55967655	      0.00000000	     -0.28799839	     -0.01606737	      2.65502041	     -0.53484181	     -0.02136960	      2.82095918	     -0.47315256	     -0.03906619	      2.82095918	     -0.32915336	     -0.03906619	      2.32314286	     -0.26743531	     -0.03276457	      2.15720408	     -0.16456228	     -0.02488835	      1.99126530	     -2.05714371	     -0.18175726	     14.76642699	      0.00000000	      0.00000000	     22.81358380	     -8.52523587	      4.89161363	      9.80378476	     -9.01716705	    155.24995801	      0.82964956	      2.67099101	     -9.24548706	    -11.35873279	     19.12560918	     -7.58422749	    163.35247127	     10.10836480	      8.08334030	    -18.96946870	    -14.91143985
